<svg fill = "#ffffffff" xmlns="http://www.w3.org/2000/svg" xmlns:xlink="http://www.w3.org/1999/xlink" width="1080" zoomAndPan="magnify" viewBox="243 328 324 154" height="1080" preserveAspectRatio="xMidYMid meet" version="1.0"><defs><clipPath id="1e17e3609f"><path d="M 243 328.253906 L 567 328.253906 L 567 482 L 243 482 Z M 243 328.253906 " clip-rule="nonzero"/></clipPath></defs><g clip-path="url(#1e17e3609f)"><path fill="#ffffff" d="M 562.5625 328.480469 L 563.367188 330.679688 C 564.167969 331.214844 567.421875 330.285156 566.957031 331.457031 C 566.410156 332.839844 564.226562 335.039062 563.308594 336.972656 C 557.800781 348.628906 556.363281 366.816406 553.335938 379.617188 C 552.601562 382.71875 550.601562 385.808594 550.25 389.082031 C 549.195312 389.859375 548.125 385.769531 547.984375 385.175781 C 546.574219 379.390625 547.066406 374.070312 547.984375 368.269531 L 551.644531 351.605469 C 535.191406 370.585938 512.214844 383.085938 488.351562 390.28125 C 465.839844 397.085938 439.738281 397.988281 416.296875 396.945312 C 407.113281 396.535156 397.816406 394.613281 388.828125 394.234375 C 382.617188 393.964844 376.8125 395.125 370.699219 395.84375 C 370.542969 396.507812 370.953125 396.648438 371.289062 397.042969 C 373.191406 399.285156 376.515625 401.53125 378.65625 404.027344 C 385.800781 412.324219 388.828125 421.792969 388.617188 432.726562 C 388.152344 456.320312 366.527344 490.214844 339.101562 476.738281 L 331.296875 471.601562 C 334.945312 475.609375 341.046875 479.164062 346.34375 480.253906 C 348.171875 480.632812 349.609375 480.589844 351.355469 480.816406 C 351.835938 480.875 353.527344 481 353.597656 481.566406 C 339.328125 483.316406 326.832031 472.589844 323.054688 459.328125 C 318.730469 444.101562 322.859375 430.851562 331.777344 418.449219 C 339.074219 408.289062 348.917969 399.382812 360.765625 395.039062 C 361.316406 394.332031 353.117188 390.734375 352.398438 390.464844 C 320.351562 378.175781 266.835938 393.882812 250.140625 425.191406 C 249.042969 427.253906 247.042969 434.167969 245.339844 434.746094 C 240.210938 436.480469 245.058594 426.292969 245.957031 424.585938 C 256.875 403.714844 281.78125 388.421875 304.558594 384.398438 C 324.140625 380.941406 341.085938 380.898438 359.441406 388.984375 C 361.175781 389.746094 362.515625 391.410156 364.34375 390.648438 L 364.132812 391.441406 C 373.148438 388.28125 382.488281 389.011719 391.816406 389.859375 C 391.886719 390.539062 390.433594 390.296875 390.011719 390.269531 C 388.882812 390.199219 387.898438 389.875 386.855469 389.832031 C 379.542969 389.5625 372.175781 389.832031 365.148438 391.847656 C 365.0625 392.457031 366.527344 392.511719 366.867188 392.5 C 370.375 392.300781 374.683594 390.875 378.472656 390.648438 C 385.660156 390.210938 391.828125 391.371094 398.773438 391.835938 C 443.332031 394.855469 483.550781 395.546875 522.34375 370.472656 C 532.5 363.910156 545.742188 352.707031 553.433594 343.394531 C 553.800781 342.941406 554.40625 342.746094 554.222656 341.996094 C 553.6875 341.472656 544.347656 347.5 543.082031 348.175781 C 538.007812 350.902344 525.050781 357.433594 519.792969 357.5625 C 519.457031 357.5625 519.117188 357.546875 518.792969 357.546875 C 518.582031 357.347656 519.132812 356.21875 519.398438 355.964844 C 520.582031 354.851562 525.050781 353.484375 526.769531 352.578125 C 534.953125 348.261719 546.699219 339.867188 554.011719 334.011719 C 556.660156 331.894531 558.71875 328.394531 562.5625 328.449219 Z M 552.222656 350.800781 L 553.027344 346.808594 C 551.96875 347.878906 550.335938 349.25 551.039062 350.800781 Z M 373.246094 404.070312 C 370.710938 401.488281 367.980469 399.03125 364.867188 397.15625 C 364.007812 397.054688 357.300781 400.035156 356.230469 400.710938 C 342.652344 409.359375 330.59375 422.300781 326.691406 438.511719 C 322.902344 454.261719 332.070312 474.777344 349.777344 476.019531 C 364.078125 477.035156 372.359375 469.21875 378.332031 457.140625 C 386.898438 439.824219 387.378906 418.492188 373.246094 404.070312 Z M 373.246094 404.070312 " fill-opacity="1" fill-rule="nonzero"/></g><path fill="#ffffff" d="M 392.785156 390.28125 C 393.039062 390.410156 393.039062 390.550781 392.785156 390.679688 Z M 392.785156 390.28125 " fill-opacity="1" fill-rule="nonzero"/></svg>