<svg fill = "#ffffffff" xmlns="http://www.w3.org/2000/svg" xmlns:xlink="http://www.w3.org/1999/xlink" width="1080" zoomAndPan="magnify" viewBox="0 0 810 809.999993" height="1080" preserveAspectRatio="xMidYMid meet" version="1.0"><defs><clipPath id="eabb033508"><path d="M 251 243 L 559 243 L 559 567 L 251 567 Z M 251 243 " clip-rule="nonzero"/></clipPath></defs><g clip-path="url(#eabb033508)"><path fill="#ffffff" d="M 431.703125 345.273438 C 434.71875 345.273438 436.914062 346.441406 438.292969 348.78125 L 438.285156 348.78125 C 438.347656 348.960938 438.402344 349.140625 438.453125 349.316406 C 440.789062 357.472656 433.347656 364.027344 416.125 368.984375 L 416.117188 368.984375 C 413.5625 369.351562 411.066406 369.628906 408.628906 369.8125 C 408.386719 368.222656 408.304688 366.753906 408.390625 365.394531 L 408.386719 365.394531 C 410.101562 357.949219 415.085938 351.929688 423.335938 347.335938 L 423.332031 347.335938 C 426.601562 345.960938 429.394531 345.273438 431.703125 345.273438 Z M 432.757812 486.953125 C 432.730469 487.488281 432.5625 487.878906 432.253906 488.125 C 432.535156 487.796875 432.710938 487.386719 432.75 486.953125 Z M 410.476562 484.773438 C 412.996094 484.773438 415.777344 485.070312 418.816406 485.664062 L 418.808594 485.664062 C 411.402344 496.566406 403.601562 502.019531 395.417969 502.019531 C 393.695312 502.019531 391.957031 501.777344 390.203125 501.296875 L 390.195312 501.296875 C 388.683594 496.054688 392.46875 491.109375 401.550781 486.460938 L 401.546875 486.460938 C 404.03125 485.335938 407.007812 484.773438 410.476562 484.773438 Z M 276.347656 242.984375 C 269.15625 242.984375 261.253906 244.546875 252.648438 247.671875 C 251.546875 248.074219 250.980469 249.289062 251.378906 250.390625 C 251.691406 251.253906 252.507812 251.789062 253.375 251.789062 C 253.613281 251.789062 253.859375 251.746094 254.097656 251.660156 C 262.1875 248.722656 269.570312 247.253906 276.253906 247.253906 C 286.015625 247.253906 294.28125 250.386719 301.050781 256.648438 L 301.046875 256.648438 C 304.996094 260.769531 307.910156 265.230469 309.789062 270.03125 L 309.78125 270.03125 C 321.085938 307.179688 328.84375 328.058594 333.050781 332.667969 L 333.046875 332.667969 C 343.992188 349.460938 355.75 360.710938 368.324219 366.410156 L 368.320312 366.410156 C 377.796875 371.6875 388.878906 374.328125 401.5625 374.328125 C 402.769531 374.328125 403.992188 374.304688 405.230469 374.253906 L 405.238281 374.253906 C 405.664062 375.867188 406.214844 377.550781 406.882812 379.3125 C 406.914062 379.390625 406.945312 379.464844 406.984375 379.535156 C 420.707031 405.910156 428.40625 423.984375 430.078125 433.765625 L 430.089844 433.828125 C 432.277344 444.65625 431.609375 456.300781 428.078125 468.757812 L 428.070312 468.757812 C 425.835938 473.664062 423.5625 478.027344 421.253906 481.851562 C 417.3125 480.984375 413.710938 480.550781 410.453125 480.550781 C 406.363281 480.550781 402.8125 481.234375 399.796875 482.597656 L 399.707031 482.640625 C 387.71875 488.75 383.34375 495.808594 386.582031 503.808594 C 386.816406 504.390625 387.296875 504.835938 387.890625 505.03125 C 390.503906 505.878906 393.070312 506.304688 395.589844 506.304688 C 405.488281 506.304688 414.695312 499.765625 423.21875 486.6875 L 423.226562 486.6875 C 425.355469 487.25 427.59375 487.941406 429.941406 488.757812 C 430.167969 488.835938 430.402344 488.875 430.636719 488.875 C 431.03125 488.875 431.421875 488.765625 431.761719 488.550781 L 431.765625 488.550781 C 439.078125 490.398438 480.347656 516.417969 555.574219 566.621094 C 555.9375 566.863281 556.34375 566.976562 556.75 566.976562 C 557.433594 566.976562 558.109375 566.648438 558.515625 566.035156 C 559.167969 565.058594 558.90625 563.742188 557.929688 563.09375 C 479.738281 510.910156 437.582031 484.621094 431.460938 484.21875 C 431.375 484.210938 431.289062 484.210938 431.203125 484.210938 C 431.164062 484.210938 431.128906 484.210938 431.089844 484.210938 C 430.738281 484.222656 430.421875 484.265625 430.140625 484.339844 C 428.566406 483.816406 427.035156 483.34375 425.550781 482.929688 L 425.542969 482.929688 C 427.75 479.179688 429.90625 474.980469 432.015625 470.328125 C 432.0625 470.234375 432.097656 470.132812 432.125 470.035156 C 435.867188 456.898438 436.578125 444.570312 434.261719 433.050781 C 432.515625 422.855469 424.707031 404.414062 410.828125 377.734375 L 410.824219 377.734375 C 410.332031 376.433594 409.914062 375.1875 409.566406 373.996094 L 409.5625 373.996094 C 411.949219 373.800781 414.390625 373.523438 416.882812 373.160156 C 416.976562 373.144531 417.070312 373.125 417.164062 373.097656 C 437.199219 367.359375 445.65625 359.042969 442.53125 348.148438 C 442.441406 347.828125 442.335938 347.503906 442.222656 347.175781 C 442.183594 347.058594 442.128906 346.941406 442.066406 346.832031 C 439.855469 342.917969 436.484375 340.960938 431.953125 340.960938 C 428.996094 340.960938 425.542969 341.792969 421.601562 343.460938 C 421.53125 343.492188 421.464844 343.523438 421.398438 343.558594 C 411.921875 348.800781 406.195312 355.804688 404.21875 364.582031 C 404.195312 364.683594 404.179688 364.785156 404.171875 364.886719 C 404.050781 366.492188 404.121094 368.207031 404.375 370.039062 L 404.367188 370.039062 C 403.425781 370.070312 402.492188 370.085938 401.570312 370.085938 C 389.574219 370.085938 379.144531 367.605469 370.289062 362.648438 C 370.238281 362.621094 370.183594 362.59375 370.128906 362.566406 C 358.242188 357.195312 347.03125 346.402344 336.492188 330.179688 C 336.414062 330.0625 336.328125 329.957031 336.234375 329.855469 C 332.53125 326.042969 325.054688 305.644531 313.800781 268.660156 C 313.785156 268.605469 313.769531 268.554688 313.746094 268.503906 C 311.652344 263.140625 308.410156 258.179688 304.023438 253.621094 C 303.992188 253.59375 303.964844 253.5625 303.933594 253.535156 C 296.332031 246.5 287.132812 242.984375 276.347656 242.984375 Z M 276.347656 242.984375 " fill-opacity="1" fill-rule="nonzero"/></g></svg>